<svg xmlns="http://www.w3.org/2000/svg" viewBox="0 0 100 100">
	<style>
		.sq { fill: #111111; }
		.ch { fill: #ffffff; }
		@media (prefers-color-scheme: dark) {
			.sq { fill: #ffffff; }
			.ch { fill: #111111; }
		}
	</style>
	<rect class="sq" width="100" height="100" rx="22" />
	<!-- Geist lowercase "e", outlined from the menu font -->
	<path
		class="ch"
		d="M50.43 68.28Q45.48 68.28 41.88 66.04Q38.28 63.79 36.34 59.67Q34.39 55.54 34.39 50Q34.39 44.46 36.34 40.36Q38.28 36.27 41.82 33.99Q45.35 31.72 50.16 31.72Q54.72 31.72 58.22 33.86Q61.72 36.01 63.66 40.10Q65.61 44.19 65.61 50.07L65.61 51.72L40.20 51.72Q40.53 57.33 43.20 60.16Q45.88 63 50.43 63Q53.86 63 56.07 61.38Q58.28 59.77 59.14 57.13L65.08 57.59Q63.69 62.28 59.83 65.28Q55.97 68.28 50.43 68.28M40.20 46.83L59.54 46.83Q59.14 41.75 56.60 39.37Q54.06 37 50.16 37Q46.14 37 43.53 39.47Q40.92 41.95 40.20 46.83"
	/>
</svg>
